<svg xmlns="http://www.w3.org/2000/svg" xmlns:xlink="http://www.w3.org/1999/xlink" width="500" zoomAndPan="magnify" viewBox="0 0 375 374.999991" height="500" preserveAspectRatio="xMidYMid meet" version="1.0"><defs><g/><clipPath id="ff1bedf6c7"><path d="M 78 190 L 191 190 L 191 250 L 78 250 Z M 78 190 " clip-rule="nonzero"/></clipPath><clipPath id="bc4b8076a1"><path d="M 53.082031 77.277344 L 207.71875 107.164062 L 176.546875 268.429688 L 21.910156 238.539062 Z M 53.082031 77.277344 " clip-rule="nonzero"/></clipPath><clipPath id="2d3841d60d"><path d="M 53.082031 77.277344 L 207.71875 107.164062 L 176.546875 268.429688 L 21.910156 238.539062 Z M 53.082031 77.277344 " clip-rule="nonzero"/></clipPath><clipPath id="15cbd108fd"><path d="M 36 91 L 189 91 L 189 250 L 36 250 Z M 36 91 " clip-rule="nonzero"/></clipPath><clipPath id="336297222a"><path d="M 53.082031 77.277344 L 207.71875 107.164062 L 176.546875 268.429688 L 21.910156 238.539062 Z M 53.082031 77.277344 " clip-rule="nonzero"/></clipPath><clipPath id="ce5574180f"><path d="M 53.082031 77.277344 L 207.71875 107.164062 L 176.546875 268.429688 L 21.910156 238.539062 Z M 53.082031 77.277344 " clip-rule="nonzero"/></clipPath><clipPath id="1dc2482385"><path d="M 40 200 L 58 200 L 58 211 L 40 211 Z M 40 200 " clip-rule="nonzero"/></clipPath><clipPath id="3b9e6212b4"><path d="M 53.082031 77.277344 L 207.71875 107.164062 L 176.546875 268.429688 L 21.910156 238.539062 Z M 53.082031 77.277344 " clip-rule="nonzero"/></clipPath><clipPath id="18796666b2"><path d="M 53.082031 77.277344 L 207.71875 107.164062 L 176.546875 268.429688 L 21.910156 238.539062 Z M 53.082031 77.277344 " clip-rule="nonzero"/></clipPath><clipPath id="fb1324a302"><path d="M 39 210 L 61 210 L 61 220 L 39 220 Z M 39 210 " clip-rule="nonzero"/></clipPath><clipPath id="68a18ff6cd"><path d="M 53.082031 77.277344 L 207.71875 107.164062 L 176.546875 268.429688 L 21.910156 238.539062 Z M 53.082031 77.277344 " clip-rule="nonzero"/></clipPath><clipPath id="30292300b6"><path d="M 53.082031 77.277344 L 207.71875 107.164062 L 176.546875 268.429688 L 21.910156 238.539062 Z M 53.082031 77.277344 " clip-rule="nonzero"/></clipPath><clipPath id="ce3d955fe2"><path d="M 44 220 L 63 220 L 63 230 L 44 230 Z M 44 220 " clip-rule="nonzero"/></clipPath><clipPath id="34ff75e88c"><path d="M 53.082031 77.277344 L 207.71875 107.164062 L 176.546875 268.429688 L 21.910156 238.539062 Z M 53.082031 77.277344 " clip-rule="nonzero"/></clipPath><clipPath id="1c0ceaa59a"><path d="M 53.082031 77.277344 L 207.71875 107.164062 L 176.546875 268.429688 L 21.910156 238.539062 Z M 53.082031 77.277344 " clip-rule="nonzero"/></clipPath><clipPath id="2698d9c631"><path d="M 50 230 L 67 230 L 67 240 L 50 240 Z M 50 230 " clip-rule="nonzero"/></clipPath><clipPath id="bd0988280d"><path d="M 53.082031 77.277344 L 207.71875 107.164062 L 176.546875 268.429688 L 21.910156 238.539062 Z M 53.082031 77.277344 " clip-rule="nonzero"/></clipPath><clipPath id="e2eb5ecbb1"><path d="M 53.082031 77.277344 L 207.71875 107.164062 L 176.546875 268.429688 L 21.910156 238.539062 Z M 53.082031 77.277344 " clip-rule="nonzero"/></clipPath></defs><rect x="-37.5" width="450" fill="#ffffff" y="-37.499999" height="449.999989" fill-opacity="1"/><rect x="-37.5" width="450" fill="#ffffff" y="-37.499999" height="449.999989" fill-opacity="1"/><g clip-path="url(#ff1bedf6c7)"><g clip-path="url(#bc4b8076a1)"><g clip-path="url(#2d3841d60d)"><path fill="#034833" d="M 153.828125 227.984375 C 160.296875 220.464844 164.953125 211.207031 166.972656 200.769531 C 167.640625 197.320312 167.988281 193.882812 168.042969 190.488281 C 163.183594 203.054688 154.054688 213.148438 142.707031 219.367188 C 136.144531 222.964844 127.90625 220.382812 124.613281 213.660156 L 118.464844 201.117188 C 117.441406 199.027344 115.5 197.542969 113.21875 197.101562 L 81.734375 191.015625 C 81.726562 191.015625 81.71875 191.015625 81.710938 191.011719 C 79.5625 190.613281 77.730469 192.609375 78.324219 194.722656 L 79.09375 197.457031 C 80.527344 202.550781 84.519531 206.519531 89.617188 207.929688 L 91.453125 208.4375 L 99.492188 210.65625 C 101.769531 211.285156 103.605469 212.96875 104.433594 215.179688 L 106.964844 221.953125 L 108.382812 225.742188 L 116.324219 246.984375 C 116.46875 247.367188 116.667969 247.710938 116.917969 248.015625 C 117.628906 248.890625 118.726562 249.410156 119.898438 249.351562 C 119.90625 249.351562 119.914062 249.351562 119.925781 249.351562 C 151.488281 247.738281 179.527344 227.234375 190.351562 197.09375 C 183.042969 212.214844 169.621094 223.355469 153.828125 227.984375 " fill-opacity="1" fill-rule="nonzero"/></g></g></g><g clip-path="url(#15cbd108fd)"><g clip-path="url(#336297222a)"><g clip-path="url(#ce5574180f)"><path fill="#83cd20" d="M 101.949219 216.109375 C 101.421875 214.695312 100.238281 213.613281 98.789062 213.214844 L 88.910156 210.484375 C 82.953125 208.839844 78.214844 204.125 76.542969 198.175781 L 75.8125 195.585938 C 75.292969 193.742188 75.664062 191.726562 76.910156 190.273438 C 78.195312 188.773438 80.128906 188.070312 82.0625 188.382812 L 82.238281 188.410156 L 92.316406 190.359375 C 90.03125 184.539062 84.675781 180.472656 78.433594 179.863281 L 67.769531 178.816406 C 63.203125 178.367188 59.769531 174.496094 59.800781 169.90625 C 59.820312 166.503906 60.15625 163.054688 60.824219 159.59375 C 64.214844 142.046875 75.457031 128.003906 90.203125 120.410156 C 75.910156 126.308594 63.667969 136.667969 55.546875 150.109375 C 67.082031 116.183594 102.167969 95.113281 138.339844 102.105469 C 160.730469 106.433594 178.726562 120.585938 188.734375 139.226562 C 178.785156 115.886719 157.820312 97.730469 131.0625 92.488281 C 88.230469 84.09375 46.414062 112.230469 38.066406 155.074219 C 35.128906 170.15625 36.683594 185.066406 41.789062 198.429688 C 41.898438 198.710938 42.003906 198.996094 42.113281 199.277344 L 52.835938 199.523438 C 57.625 199.632812 60.574219 204.855469 58.140625 208.984375 C 58.074219 209.097656 58.035156 209.15625 58.035156 209.15625 C 64.25 212.878906 61.863281 219.171875 61.863281 219.171875 C 67.246094 223.003906 63.742188 228.089844 63.742188 228.089844 C 65.660156 229.359375 66.066406 231.1875 66.148438 231.773438 C 66.191406 232.074219 66.242188 232.371094 66.296875 232.671875 L 68.332031 243.8125 C 68.683594 245.726562 70.53125 247.597656 72.445312 247.964844 C 74.855469 248.433594 76.992188 246.34375 76.582031 243.921875 L 75.664062 238.527344 L 74.4375 231.332031 C 74.355469 230.828125 74.773438 230.378906 75.289062 230.441406 C 75.628906 230.480469 75.890625 230.757812 75.960938 231.089844 L 77.730469 239.703125 L 79.039062 246.078125 C 79.492188 248.273438 81.496094 249.871094 83.726562 249.660156 C 86.398438 249.410156 88.207031 246.820312 87.523438 244.226562 C 87.523438 244.226562 87.519531 244.222656 87.519531 244.21875 L 83.878906 230.519531 C 83.722656 229.933594 84.199219 229.371094 84.804688 229.425781 C 85.15625 229.460938 85.453125 229.703125 85.554688 230.039062 L 90.277344 245.214844 L 90.863281 247.097656 C 91.441406 248.953125 93.246094 250.210938 95.171875 249.960938 C 96.671875 249.769531 97.839844 248.773438 98.34375 247.488281 C 98.652344 246.703125 98.71875 245.816406 98.457031 244.9375 L 94.847656 232.628906 C 94.6875 232.085938 94.996094 231.488281 95.550781 231.378906 C 96.039062 231.277344 96.511719 231.566406 96.652344 232.03125 L 100.796875 245.621094 C 101.128906 246.71875 101.765625 247.640625 102.585938 248.332031 C 103.953125 249.472656 105.828125 249.960938 107.675781 249.488281 C 108.03125 249.398438 108.363281 249.269531 108.683594 249.121094 C 111.324219 247.890625 112.675781 244.796875 111.613281 241.957031 L 101.949219 216.109375 " fill-opacity="1" fill-rule="nonzero"/></g></g></g><g clip-path="url(#1dc2482385)"><g clip-path="url(#3b9e6212b4)"><g clip-path="url(#18796666b2)"><path fill="#034833" d="M 44.625 209.878906 L 53.050781 210.101562 C 55.582031 210.167969 57.683594 208.171875 57.753906 205.644531 C 57.820312 203.113281 55.824219 201.007812 53.292969 200.941406 L 44.867188 200.71875 C 42.335938 200.652344 40.230469 202.648438 40.164062 205.175781 C 40.097656 207.703125 42.09375 209.808594 44.625 209.878906 " fill-opacity="1" fill-rule="nonzero"/></g></g></g><g clip-path="url(#fb1324a302)"><g clip-path="url(#68a18ff6cd)"><g clip-path="url(#30292300b6)"><path fill="#034833" d="M 60.207031 215.300781 C 60.273438 212.773438 58.277344 210.667969 55.75 210.601562 L 44.191406 210.578125 C 41.660156 210.511719 39.558594 212.503906 39.488281 215.035156 C 39.421875 217.5625 41.417969 219.671875 43.949219 219.738281 L 55.507812 219.761719 C 58.035156 219.828125 60.140625 217.832031 60.207031 215.300781 " fill-opacity="1" fill-rule="nonzero"/></g></g></g><g clip-path="url(#ce3d955fe2)"><g clip-path="url(#34ff75e88c)"><g clip-path="url(#1c0ceaa59a)"><path fill="#034833" d="M 62.179688 225.289062 C 62.246094 222.757812 60.25 220.65625 57.722656 220.589844 L 49.292969 220.363281 C 46.765625 220.296875 44.660156 222.292969 44.59375 224.824219 C 44.523438 227.351562 46.519531 229.457031 49.050781 229.523438 L 57.476562 229.746094 C 60.007812 229.8125 62.113281 227.820312 62.179688 225.289062 " fill-opacity="1" fill-rule="nonzero"/></g></g></g><g clip-path="url(#2698d9c631)"><g clip-path="url(#bd0988280d)"><g clip-path="url(#e2eb5ecbb1)"><path fill="#034833" d="M 61.714844 230.367188 L 54.800781 230.136719 C 52.273438 230.070312 50.167969 232.066406 50.101562 234.59375 C 50.035156 237.125 52.03125 239.226562 54.558594 239.296875 L 61.472656 239.523438 C 64 239.589844 66.105469 237.59375 66.171875 235.066406 C 66.242188 232.535156 64.246094 230.433594 61.714844 230.367188 " fill-opacity="1" fill-rule="nonzero"/></g></g></g><g fill="#83cd20" fill-opacity="1"><g transform="translate(111.152291, 173.333794)"><g><path d="M 12.1875 -27.890625 C 13.976562 -27.890625 15.617188 -27.613281 17.109375 -27.0625 C 18.597656 -26.519531 19.894531 -25.753906 21 -24.765625 C 22.101562 -23.773438 22.957031 -22.601562 23.5625 -21.25 C 24.164062 -19.90625 24.46875 -18.429688 24.46875 -16.828125 C 24.46875 -15.222656 24.164062 -13.75 23.5625 -12.40625 C 22.957031 -11.070312 22.101562 -9.914062 21 -8.9375 C 19.894531 -7.96875 18.597656 -7.21875 17.109375 -6.6875 C 15.617188 -6.15625 13.976562 -5.890625 12.1875 -5.890625 L 8.515625 -5.890625 L 8.515625 -0.796875 C 8.515625 -0.554688 8.441406 -0.359375 8.296875 -0.203125 C 8.148438 -0.0546875 7.941406 0.015625 7.671875 0.015625 L 4.15625 0.015625 C 3.894531 0.015625 3.691406 -0.0546875 3.546875 -0.203125 C 3.398438 -0.347656 3.328125 -0.546875 3.328125 -0.796875 L 3.328125 -27.078125 C 3.328125 -27.316406 3.398438 -27.507812 3.546875 -27.65625 C 3.703125 -27.8125 3.90625 -27.890625 4.15625 -27.890625 L 6.046875 -27.890625 C 6.421875 -27.890625 6.757812 -27.890625 7.0625 -27.890625 C 7.375 -27.890625 7.609375 -27.890625 7.765625 -27.890625 Z M 11.84375 -10.4375 C 12.925781 -10.4375 13.921875 -10.585938 14.828125 -10.890625 C 15.734375 -11.203125 16.519531 -11.644531 17.1875 -12.21875 C 17.851562 -12.800781 18.367188 -13.484375 18.734375 -14.265625 C 19.109375 -15.046875 19.296875 -15.914062 19.296875 -16.875 C 19.296875 -17.8125 19.109375 -18.671875 18.734375 -19.453125 C 18.367188 -20.234375 17.851562 -20.914062 17.1875 -21.5 C 16.519531 -22.082031 15.734375 -22.53125 14.828125 -22.84375 C 13.921875 -23.164062 12.925781 -23.328125 11.84375 -23.328125 L 8.515625 -23.328125 L 8.515625 -10.4375 Z M 11.84375 -10.4375 "/></g></g></g><g fill="#83cd20" fill-opacity="1"><g transform="translate(140.958595, 173.333794)"><g><path d="M 20.828125 -8.234375 L 24.578125 -0.9375 C 24.710938 -0.664062 24.726562 -0.4375 24.625 -0.25 C 24.53125 -0.0703125 24.335938 0.015625 24.046875 0.015625 L 20.015625 0.015625 C 19.835938 0.015625 19.660156 -0.046875 19.484375 -0.171875 C 19.304688 -0.296875 19.171875 -0.457031 19.078125 -0.65625 L 16.1875 -6.578125 C 15.882812 -6.523438 15.570312 -6.488281 15.25 -6.46875 C 14.9375 -6.445312 14.613281 -6.4375 14.28125 -6.4375 L 8.515625 -6.4375 L 8.515625 -0.796875 C 8.515625 -0.546875 8.4375 -0.347656 8.28125 -0.203125 C 8.125 -0.0546875 7.921875 0.015625 7.671875 0.015625 L 4.15625 0.015625 C 3.914062 0.015625 3.71875 -0.0546875 3.5625 -0.203125 C 3.40625 -0.347656 3.328125 -0.546875 3.328125 -0.796875 L 3.328125 -27.09375 C 3.328125 -27.320312 3.40625 -27.507812 3.5625 -27.65625 C 3.71875 -27.8125 3.914062 -27.890625 4.15625 -27.890625 L 5.0625 -27.890625 C 5.601562 -27.890625 6.132812 -27.890625 6.65625 -27.890625 C 7.175781 -27.890625 7.546875 -27.890625 7.765625 -27.890625 L 14.28125 -27.890625 C 15.914062 -27.890625 17.421875 -27.617188 18.796875 -27.078125 C 20.171875 -26.546875 21.359375 -25.796875 22.359375 -24.828125 C 23.367188 -23.867188 24.148438 -22.726562 24.703125 -21.40625 C 25.265625 -20.082031 25.546875 -18.640625 25.546875 -17.078125 C 25.546875 -15.171875 25.125 -13.457031 24.28125 -11.9375 C 23.4375 -10.414062 22.285156 -9.179688 20.828125 -8.234375 Z M 13.953125 -10.78125 C 15.203125 -10.78125 16.304688 -11.046875 17.265625 -11.578125 C 18.234375 -12.117188 18.992188 -12.863281 19.546875 -13.8125 C 20.097656 -14.769531 20.375 -15.867188 20.375 -17.109375 C 20.375 -18.015625 20.210938 -18.847656 19.890625 -19.609375 C 19.566406 -20.367188 19.113281 -21.03125 18.53125 -21.59375 C 17.957031 -22.15625 17.28125 -22.585938 16.5 -22.890625 C 15.71875 -23.191406 14.867188 -23.34375 13.953125 -23.34375 L 8.515625 -23.34375 L 8.515625 -10.78125 Z M 13.953125 -10.78125 "/></g></g></g><g fill="#83cd20" fill-opacity="1"><g transform="translate(172.563744, 173.333794)"><g><path d="M 23.515625 -4.921875 C 23.859375 -4.921875 24.128906 -4.828125 24.328125 -4.640625 C 24.535156 -4.460938 24.640625 -4.210938 24.640625 -3.890625 L 24.640625 -0.8125 C 24.640625 -0.5625 24.5625 -0.363281 24.40625 -0.21875 C 24.25 -0.0703125 24.046875 0 23.796875 0 L 4.15625 0 C 3.601562 0 3.328125 -0.269531 3.328125 -0.8125 L 3.328125 -27.0625 C 3.328125 -27.613281 3.601562 -27.890625 4.15625 -27.890625 L 23.40625 -27.890625 C 23.675781 -27.890625 23.882812 -27.8125 24.03125 -27.65625 C 24.175781 -27.507812 24.25 -27.316406 24.25 -27.078125 L 24.25 -23.8125 C 24.25 -23.25 23.96875 -22.96875 23.40625 -22.96875 L 8.515625 -22.96875 L 8.515625 -15.265625 L 20.171875 -15.265625 C 20.472656 -15.265625 20.707031 -15.191406 20.875 -15.046875 C 21.050781 -14.898438 21.140625 -14.6875 21.140625 -14.40625 L 21.140625 -11.34375 C 21.140625 -11.101562 21.050781 -10.90625 20.875 -10.75 C 20.707031 -10.59375 20.472656 -10.515625 20.171875 -10.515625 L 8.515625 -10.515625 L 8.515625 -4.921875 Z M 23.515625 -4.921875 "/></g></g></g><g fill="#83cd20" fill-opacity="1"><g transform="translate(202.828929, 173.333794)"><g><path d="M 12.59375 0.4375 C 11.539062 0.4375 10.492188 0.320312 9.453125 0.09375 C 8.410156 -0.125 7.421875 -0.441406 6.484375 -0.859375 C 5.546875 -1.273438 4.695312 -1.765625 3.9375 -2.328125 C 3.175781 -2.898438 2.539062 -3.53125 2.03125 -4.21875 C 1.894531 -4.394531 1.835938 -4.585938 1.859375 -4.796875 C 1.890625 -5.015625 2.003906 -5.222656 2.203125 -5.421875 L 4.59375 -7.796875 C 4.757812 -7.960938 4.945312 -8.03125 5.15625 -8 C 5.375 -7.96875 5.59375 -7.847656 5.8125 -7.640625 C 6.363281 -7.046875 7 -6.515625 7.71875 -6.046875 C 8.445312 -5.578125 9.210938 -5.203125 10.015625 -4.921875 C 10.828125 -4.648438 11.617188 -4.515625 12.390625 -4.515625 C 13.953125 -4.515625 15.148438 -4.816406 15.984375 -5.421875 C 16.816406 -6.035156 17.234375 -6.882812 17.234375 -7.96875 C 17.234375 -8.625 17.003906 -9.1875 16.546875 -9.65625 C 16.085938 -10.132812 15.421875 -10.566406 14.546875 -10.953125 C 13.679688 -11.347656 12.617188 -11.757812 11.359375 -12.1875 C 10.035156 -12.613281 8.859375 -13.070312 7.828125 -13.5625 C 6.804688 -14.0625 5.929688 -14.628906 5.203125 -15.265625 C 4.484375 -15.910156 3.9375 -16.65625 3.5625 -17.5 C 3.195312 -18.34375 3.015625 -19.328125 3.015625 -20.453125 C 3.015625 -22.023438 3.398438 -23.398438 4.171875 -24.578125 C 4.953125 -25.753906 6.054688 -26.671875 7.484375 -27.328125 C 8.910156 -27.984375 10.59375 -28.3125 12.53125 -28.3125 C 13.582031 -28.3125 14.613281 -28.175781 15.625 -27.90625 C 16.632812 -27.644531 17.554688 -27.28125 18.390625 -26.8125 C 19.234375 -26.34375 19.925781 -25.785156 20.46875 -25.140625 C 20.664062 -24.941406 20.765625 -24.71875 20.765625 -24.46875 C 20.773438 -24.226562 20.691406 -24.003906 20.515625 -23.796875 L 18.59375 -21.59375 C 18.332031 -21.28125 18.070312 -21.140625 17.8125 -21.171875 C 17.5625 -21.203125 17.289062 -21.316406 17 -21.515625 C 16.375 -22.097656 15.632812 -22.550781 14.78125 -22.875 C 13.9375 -23.207031 13.109375 -23.375 12.296875 -23.375 C 10.960938 -23.375 9.925781 -23.09375 9.1875 -22.53125 C 8.457031 -21.976562 8.09375 -21.265625 8.09375 -20.390625 C 8.09375 -19.691406 8.351562 -19.09375 8.875 -18.59375 C 9.40625 -18.101562 10.117188 -17.660156 11.015625 -17.265625 C 11.910156 -16.878906 12.898438 -16.503906 13.984375 -16.140625 C 15.109375 -15.765625 16.1875 -15.363281 17.21875 -14.9375 C 18.25 -14.507812 19.164062 -13.992188 19.96875 -13.390625 C 20.78125 -12.796875 21.421875 -12.0625 21.890625 -11.1875 C 22.359375 -10.320312 22.59375 -9.273438 22.59375 -8.046875 C 22.59375 -6.742188 22.347656 -5.566406 21.859375 -4.515625 C 21.367188 -3.472656 20.679688 -2.582031 19.796875 -1.84375 C 18.910156 -1.101562 17.851562 -0.535156 16.625 -0.140625 C 15.40625 0.242188 14.0625 0.4375 12.59375 0.4375 Z M 12.59375 0.4375 "/></g></g></g><g fill="#83cd20" fill-opacity="1"><g transform="translate(230.946521, 173.333794)"><g><path d="M 1.078125 -24.171875 L 1.078125 -27.078125 C 1.078125 -27.617188 1.347656 -27.890625 1.890625 -27.890625 L 21 -27.890625 C 21.238281 -27.890625 21.425781 -27.8125 21.5625 -27.65625 C 21.707031 -27.507812 21.78125 -27.316406 21.78125 -27.078125 L 21.78125 -24.171875 C 21.78125 -23.617188 21.519531 -23.34375 21 -23.34375 L 14 -23.34375 L 14 -0.796875 C 14 -0.253906 13.726562 0.015625 13.1875 0.015625 L 9.640625 0.015625 C 9.097656 0.015625 8.828125 -0.253906 8.828125 -0.796875 L 8.828125 -23.34375 L 1.890625 -23.34375 C 1.648438 -23.34375 1.453125 -23.410156 1.296875 -23.546875 C 1.148438 -23.691406 1.078125 -23.898438 1.078125 -24.171875 Z M 1.078125 -24.171875 "/></g></g></g><g fill="#83cd20" fill-opacity="1"><g transform="translate(257.57731, 173.333794)"><g><path d="M 8.5 -27.296875 L 8.5 -0.59375 C 8.5 -0.1875 8.289062 0.015625 7.875 0.015625 L 3.921875 0.015625 C 3.523438 0.015625 3.328125 -0.1875 3.328125 -0.59375 L 3.328125 -27.296875 C 3.328125 -27.710938 3.523438 -27.921875 3.921875 -27.921875 L 7.875 -27.921875 C 8.289062 -27.921875 8.5 -27.710938 8.5 -27.296875 Z M 8.5 -27.296875 "/></g></g></g><g fill="#83cd20" fill-opacity="1"><g transform="translate(273.158047, 173.333794)"><g><path d="M 25.21875 -14.1875 C 25.625 -14.1875 25.828125 -13.976562 25.828125 -13.5625 L 25.828125 -3.078125 C 25.828125 -2.921875 25.785156 -2.753906 25.703125 -2.578125 C 25.628906 -2.410156 25.523438 -2.28125 25.390625 -2.1875 C 24.847656 -1.820312 24.21875 -1.476562 23.5 -1.15625 C 22.789062 -0.832031 22.023438 -0.550781 21.203125 -0.3125 C 20.378906 -0.0820312 19.546875 0.0976562 18.703125 0.234375 C 17.859375 0.367188 17.046875 0.4375 16.265625 0.4375 C 14.640625 0.4375 13.09375 0.203125 11.625 -0.265625 C 10.15625 -0.734375 8.8125 -1.398438 7.59375 -2.265625 C 6.375 -3.140625 5.320312 -4.171875 4.4375 -5.359375 C 3.550781 -6.554688 2.863281 -7.875 2.375 -9.3125 C 1.894531 -10.757812 1.65625 -12.300781 1.65625 -13.9375 C 1.65625 -15.550781 1.894531 -17.082031 2.375 -18.53125 C 2.863281 -19.976562 3.550781 -21.296875 4.4375 -22.484375 C 5.320312 -23.671875 6.367188 -24.703125 7.578125 -25.578125 C 8.796875 -26.453125 10.132812 -27.125 11.59375 -27.59375 C 13.0625 -28.070312 14.613281 -28.3125 16.25 -28.3125 C 17.1875 -28.3125 18.171875 -28.207031 19.203125 -28 C 20.242188 -27.789062 21.25 -27.472656 22.21875 -27.046875 C 23.1875 -26.628906 24.050781 -26.097656 24.8125 -25.453125 C 24.988281 -25.304688 25.09375 -25.125 25.125 -24.90625 C 25.164062 -24.695312 25.125 -24.507812 25 -24.34375 L 22.984375 -21.28125 C 22.847656 -21.082031 22.671875 -20.972656 22.453125 -20.953125 C 22.242188 -20.929688 22.046875 -21.003906 21.859375 -21.171875 C 21.304688 -21.640625 20.707031 -22.019531 20.0625 -22.3125 C 19.414062 -22.613281 18.765625 -22.832031 18.109375 -22.96875 C 17.453125 -23.101562 16.835938 -23.171875 16.265625 -23.171875 C 14.941406 -23.171875 13.707031 -22.929688 12.5625 -22.453125 C 11.425781 -21.984375 10.429688 -21.328125 9.578125 -20.484375 C 8.722656 -19.648438 8.050781 -18.671875 7.5625 -17.546875 C 7.082031 -16.429688 6.84375 -15.226562 6.84375 -13.9375 C 6.84375 -12.625 7.070312 -11.394531 7.53125 -10.25 C 8 -9.113281 8.648438 -8.113281 9.484375 -7.25 C 10.328125 -6.394531 11.320312 -5.722656 12.46875 -5.234375 C 13.625 -4.742188 14.890625 -4.5 16.265625 -4.5 C 16.742188 -4.5 17.269531 -4.554688 17.84375 -4.671875 C 18.414062 -4.796875 18.972656 -4.960938 19.515625 -5.171875 C 20.066406 -5.390625 20.523438 -5.628906 20.890625 -5.890625 L 20.890625 -9.859375 L 16.140625 -9.859375 C 15.742188 -9.859375 15.546875 -10.0625 15.546875 -10.46875 L 15.546875 -13.5625 C 15.546875 -13.976562 15.742188 -14.1875 16.140625 -14.1875 Z M 25.21875 -14.1875 "/></g></g></g><g fill="#83cd20" fill-opacity="1"><g transform="translate(305.167027, 173.333794)"><g><path d="M 23.515625 -4.921875 C 23.859375 -4.921875 24.128906 -4.828125 24.328125 -4.640625 C 24.535156 -4.460938 24.640625 -4.210938 24.640625 -3.890625 L 24.640625 -0.8125 C 24.640625 -0.5625 24.5625 -0.363281 24.40625 -0.21875 C 24.25 -0.0703125 24.046875 0 23.796875 0 L 4.15625 0 C 3.601562 0 3.328125 -0.269531 3.328125 -0.8125 L 3.328125 -27.0625 C 3.328125 -27.613281 3.601562 -27.890625 4.15625 -27.890625 L 23.40625 -27.890625 C 23.675781 -27.890625 23.882812 -27.8125 24.03125 -27.65625 C 24.175781 -27.507812 24.25 -27.316406 24.25 -27.078125 L 24.25 -23.8125 C 24.25 -23.25 23.96875 -22.96875 23.40625 -22.96875 L 8.515625 -22.96875 L 8.515625 -15.265625 L 20.171875 -15.265625 C 20.472656 -15.265625 20.707031 -15.191406 20.875 -15.046875 C 21.050781 -14.898438 21.140625 -14.6875 21.140625 -14.40625 L 21.140625 -11.34375 C 21.140625 -11.101562 21.050781 -10.90625 20.875 -10.75 C 20.707031 -10.59375 20.472656 -10.515625 20.171875 -10.515625 L 8.515625 -10.515625 L 8.515625 -4.921875 Z M 23.515625 -4.921875 "/></g></g></g><g fill="#034833" fill-opacity="1"><g transform="translate(149.144351, 188.624988)"><g><path d="M 6.53125 -2.015625 C 6.601562 -2.066406 6.675781 -2.085938 6.75 -2.078125 C 6.820312 -2.078125 6.875 -2.050781 6.90625 -2 L 7.546875 -1.046875 C 7.566406 -1.003906 7.566406 -0.953125 7.546875 -0.890625 C 7.523438 -0.828125 7.484375 -0.773438 7.421875 -0.734375 C 7.203125 -0.554688 6.945312 -0.398438 6.65625 -0.265625 C 6.375 -0.140625 6.078125 -0.046875 5.765625 0.015625 C 5.460938 0.0859375 5.171875 0.125 4.890625 0.125 C 4.398438 0.125 3.929688 0.0546875 3.484375 -0.078125 C 3.046875 -0.222656 2.644531 -0.425781 2.28125 -0.6875 C 1.914062 -0.945312 1.597656 -1.253906 1.328125 -1.609375 C 1.066406 -1.972656 0.863281 -2.367188 0.71875 -2.796875 C 0.570312 -3.234375 0.5 -3.695312 0.5 -4.1875 C 0.5 -4.664062 0.570312 -5.125 0.71875 -5.5625 C 0.863281 -6 1.066406 -6.394531 1.328125 -6.75 C 1.597656 -7.113281 1.914062 -7.425781 2.28125 -7.6875 C 2.644531 -7.945312 3.046875 -8.144531 3.484375 -8.28125 C 3.929688 -8.425781 4.398438 -8.5 4.890625 -8.5 C 5.171875 -8.5 5.460938 -8.460938 5.765625 -8.390625 C 6.078125 -8.328125 6.378906 -8.226562 6.671875 -8.09375 C 6.960938 -7.96875 7.222656 -7.8125 7.453125 -7.625 C 7.523438 -7.570312 7.5625 -7.515625 7.5625 -7.453125 C 7.570312 -7.398438 7.566406 -7.351562 7.546875 -7.3125 L 6.90625 -6.359375 C 6.882812 -6.304688 6.835938 -6.273438 6.765625 -6.265625 C 6.691406 -6.265625 6.617188 -6.289062 6.546875 -6.34375 C 6.316406 -6.539062 6.050781 -6.691406 5.75 -6.796875 C 5.457031 -6.898438 5.171875 -6.953125 4.890625 -6.953125 C 4.492188 -6.953125 4.125 -6.878906 3.78125 -6.734375 C 3.4375 -6.597656 3.132812 -6.398438 2.875 -6.140625 C 2.613281 -5.890625 2.410156 -5.597656 2.265625 -5.265625 C 2.117188 -4.929688 2.046875 -4.570312 2.046875 -4.1875 C 2.046875 -3.800781 2.117188 -3.4375 2.265625 -3.09375 C 2.421875 -2.757812 2.625 -2.46875 2.875 -2.21875 C 3.132812 -1.96875 3.4375 -1.769531 3.78125 -1.625 C 4.125 -1.488281 4.492188 -1.421875 4.890625 -1.421875 C 5.160156 -1.421875 5.441406 -1.472656 5.734375 -1.578125 C 6.035156 -1.679688 6.300781 -1.828125 6.53125 -2.015625 Z M 6.53125 -2.015625 "/></g></g></g><g fill="#034833" fill-opacity="1"><g transform="translate(166.316055, 188.624988)"><g><path d="M 0.5 -4.171875 C 0.5 -4.660156 0.566406 -5.125 0.703125 -5.5625 C 0.847656 -6 1.050781 -6.394531 1.3125 -6.75 C 1.582031 -7.101562 1.894531 -7.410156 2.25 -7.671875 C 2.613281 -7.941406 3.015625 -8.144531 3.453125 -8.28125 C 3.890625 -8.425781 4.351562 -8.5 4.84375 -8.5 C 5.332031 -8.5 5.796875 -8.425781 6.234375 -8.28125 C 6.671875 -8.144531 7.066406 -7.941406 7.421875 -7.671875 C 7.785156 -7.410156 8.097656 -7.101562 8.359375 -6.75 C 8.628906 -6.394531 8.832031 -6 8.96875 -5.5625 C 9.113281 -5.125 9.1875 -4.660156 9.1875 -4.171875 C 9.1875 -3.691406 9.113281 -3.234375 8.96875 -2.796875 C 8.832031 -2.359375 8.628906 -1.960938 8.359375 -1.609375 C 8.097656 -1.253906 7.785156 -0.945312 7.421875 -0.6875 C 7.066406 -0.425781 6.671875 -0.222656 6.234375 -0.078125 C 5.796875 0.0546875 5.332031 0.125 4.84375 0.125 C 4.351562 0.125 3.890625 0.0546875 3.453125 -0.078125 C 3.015625 -0.222656 2.613281 -0.425781 2.25 -0.6875 C 1.894531 -0.945312 1.582031 -1.253906 1.3125 -1.609375 C 1.050781 -1.960938 0.847656 -2.359375 0.703125 -2.796875 C 0.566406 -3.234375 0.5 -3.691406 0.5 -4.171875 Z M 2.046875 -4.171875 C 2.046875 -3.785156 2.117188 -3.425781 2.265625 -3.09375 C 2.410156 -2.757812 2.609375 -2.46875 2.859375 -2.21875 C 3.117188 -1.96875 3.414062 -1.769531 3.75 -1.625 C 4.09375 -1.488281 4.457031 -1.421875 4.84375 -1.421875 C 5.238281 -1.421875 5.601562 -1.488281 5.9375 -1.625 C 6.269531 -1.769531 6.5625 -1.96875 6.8125 -2.21875 C 7.070312 -2.46875 7.273438 -2.757812 7.421875 -3.09375 C 7.566406 -3.425781 7.640625 -3.785156 7.640625 -4.171875 C 7.640625 -4.566406 7.566406 -4.929688 7.421875 -5.265625 C 7.273438 -5.609375 7.070312 -5.90625 6.8125 -6.15625 C 6.5625 -6.40625 6.265625 -6.597656 5.921875 -6.734375 C 5.585938 -6.878906 5.226562 -6.953125 4.84375 -6.953125 C 4.457031 -6.953125 4.09375 -6.878906 3.75 -6.734375 C 3.414062 -6.597656 3.117188 -6.40625 2.859375 -6.15625 C 2.609375 -5.90625 2.410156 -5.609375 2.265625 -5.265625 C 2.117188 -4.929688 2.046875 -4.566406 2.046875 -4.171875 Z M 2.046875 -4.171875 "/></g></g></g><g fill="#034833" fill-opacity="1"><g transform="translate(185.048801, 188.624988)"><g><path d="M 8.28125 -8.390625 C 8.40625 -8.390625 8.46875 -8.328125 8.46875 -8.203125 L 8.46875 -0.15625 C 8.46875 -0.0703125 8.441406 -0.0078125 8.390625 0.03125 C 8.347656 0.0820312 8.300781 0.109375 8.25 0.109375 L 8.234375 0.109375 C 8.160156 0.109375 8.097656 0.0859375 8.046875 0.046875 C 8.003906 0.00390625 7.953125 -0.0390625 7.890625 -0.09375 L 2.5625 -5.15625 L 2.5625 -0.171875 C 2.5625 -0.0546875 2.5 0 2.375 0 L 1.1875 0 C 1.0625 0 1 -0.0546875 1 -0.171875 L 1 -8.25 C 1 -8.3125 1.015625 -8.363281 1.046875 -8.40625 C 1.085938 -8.457031 1.140625 -8.484375 1.203125 -8.484375 L 1.21875 -8.484375 C 1.28125 -8.484375 1.332031 -8.460938 1.375 -8.421875 C 1.414062 -8.390625 1.46875 -8.347656 1.53125 -8.296875 L 6.90625 -3.203125 L 6.90625 -8.203125 C 6.90625 -8.328125 6.96875 -8.390625 7.09375 -8.390625 Z M 8.28125 -8.390625 "/></g></g></g><g fill="#034833" fill-opacity="1"><g transform="translate(203.55539, 188.624988)"><g><path d="M 3.78125 0.125 C 3.46875 0.125 3.15625 0.0859375 2.84375 0.015625 C 2.53125 -0.046875 2.234375 -0.140625 1.953125 -0.265625 C 1.671875 -0.390625 1.414062 -0.535156 1.1875 -0.703125 C 0.957031 -0.867188 0.765625 -1.054688 0.609375 -1.265625 C 0.566406 -1.316406 0.550781 -1.375 0.5625 -1.4375 C 0.570312 -1.5 0.601562 -1.5625 0.65625 -1.625 L 1.375 -2.34375 C 1.425781 -2.394531 1.484375 -2.414062 1.546875 -2.40625 C 1.617188 -2.394531 1.6875 -2.359375 1.75 -2.296875 C 1.914062 -2.117188 2.101562 -1.957031 2.3125 -1.8125 C 2.53125 -1.675781 2.757812 -1.566406 3 -1.484375 C 3.25 -1.398438 3.488281 -1.359375 3.71875 -1.359375 C 4.1875 -1.359375 4.546875 -1.445312 4.796875 -1.625 C 5.046875 -1.8125 5.171875 -2.066406 5.171875 -2.390625 C 5.171875 -2.585938 5.101562 -2.753906 4.96875 -2.890625 C 4.832031 -3.035156 4.632812 -3.164062 4.375 -3.28125 C 4.113281 -3.40625 3.796875 -3.53125 3.421875 -3.65625 C 3.015625 -3.789062 2.65625 -3.929688 2.34375 -4.078125 C 2.039062 -4.222656 1.78125 -4.390625 1.5625 -4.578125 C 1.34375 -4.773438 1.175781 -5 1.0625 -5.25 C 0.957031 -5.507812 0.90625 -5.804688 0.90625 -6.140625 C 0.90625 -6.617188 1.019531 -7.035156 1.25 -7.390625 C 1.488281 -7.742188 1.820312 -8.015625 2.25 -8.203125 C 2.675781 -8.398438 3.179688 -8.5 3.765625 -8.5 C 4.078125 -8.5 4.382812 -8.457031 4.6875 -8.375 C 5 -8.300781 5.28125 -8.191406 5.53125 -8.046875 C 5.78125 -7.910156 5.988281 -7.75 6.15625 -7.5625 C 6.207031 -7.5 6.234375 -7.429688 6.234375 -7.359375 C 6.242188 -7.285156 6.222656 -7.21875 6.171875 -7.15625 L 5.59375 -6.484375 C 5.507812 -6.390625 5.425781 -6.347656 5.34375 -6.359375 C 5.269531 -6.367188 5.191406 -6.40625 5.109375 -6.46875 C 4.921875 -6.644531 4.695312 -6.78125 4.4375 -6.875 C 4.1875 -6.96875 3.941406 -7.015625 3.703125 -7.015625 C 3.296875 -7.015625 2.984375 -6.929688 2.765625 -6.765625 C 2.546875 -6.597656 2.4375 -6.382812 2.4375 -6.125 C 2.4375 -5.914062 2.515625 -5.734375 2.671875 -5.578125 C 2.828125 -5.429688 3.039062 -5.300781 3.3125 -5.1875 C 3.582031 -5.070312 3.878906 -4.957031 4.203125 -4.84375 C 4.535156 -4.738281 4.859375 -4.617188 5.171875 -4.484375 C 5.484375 -4.359375 5.757812 -4.203125 6 -4.015625 C 6.238281 -3.835938 6.429688 -3.617188 6.578125 -3.359375 C 6.722656 -3.097656 6.796875 -2.785156 6.796875 -2.421875 C 6.796875 -2.023438 6.71875 -1.671875 6.5625 -1.359375 C 6.414062 -1.046875 6.207031 -0.773438 5.9375 -0.546875 C 5.675781 -0.328125 5.363281 -0.160156 5 -0.046875 C 4.632812 0.0664062 4.226562 0.125 3.78125 0.125 Z M 3.78125 0.125 "/></g></g></g><g fill="#034833" fill-opacity="1"><g transform="translate(219.92175, 188.624988)"><g><path d="M 2.40625 -8.203125 L 2.40625 -3.4375 C 2.40625 -3.132812 2.453125 -2.859375 2.546875 -2.609375 C 2.648438 -2.367188 2.789062 -2.15625 2.96875 -1.96875 C 3.144531 -1.78125 3.351562 -1.632812 3.59375 -1.53125 C 3.832031 -1.4375 4.09375 -1.390625 4.375 -1.390625 C 4.664062 -1.390625 4.929688 -1.4375 5.171875 -1.53125 C 5.410156 -1.632812 5.617188 -1.78125 5.796875 -1.96875 C 5.972656 -2.15625 6.109375 -2.367188 6.203125 -2.609375 C 6.304688 -2.859375 6.359375 -3.132812 6.359375 -3.4375 L 6.359375 -8.203125 C 6.359375 -8.328125 6.421875 -8.390625 6.546875 -8.390625 L 7.703125 -8.390625 C 7.835938 -8.390625 7.90625 -8.328125 7.90625 -8.203125 L 7.90625 -3.421875 C 7.90625 -2.898438 7.816406 -2.421875 7.640625 -1.984375 C 7.472656 -1.546875 7.234375 -1.171875 6.921875 -0.859375 C 6.609375 -0.546875 6.234375 -0.300781 5.796875 -0.125 C 5.367188 0.0390625 4.894531 0.125 4.375 0.125 C 3.851562 0.125 3.375 0.0390625 2.9375 -0.125 C 2.507812 -0.300781 2.140625 -0.546875 1.828125 -0.859375 C 1.515625 -1.179688 1.269531 -1.5625 1.09375 -2 C 0.925781 -2.4375 0.84375 -2.921875 0.84375 -3.453125 L 0.84375 -8.203125 C 0.84375 -8.328125 0.90625 -8.390625 1.03125 -8.390625 L 2.21875 -8.390625 C 2.34375 -8.390625 2.40625 -8.328125 2.40625 -8.203125 Z M 2.40625 -8.203125 "/></g></g></g><g fill="#034833" fill-opacity="1"><g transform="translate(237.733316, 188.624988)"><g><path d="M 6.34375 -1.375 C 6.46875 -1.375 6.53125 -1.3125 6.53125 -1.1875 L 6.53125 -0.1875 C 6.53125 -0.0625 6.46875 0 6.34375 0 L 1.1875 0 C 1.0625 0 1 -0.0625 1 -0.1875 L 1 -8.203125 C 1 -8.328125 1.0625 -8.390625 1.1875 -8.390625 L 2.375 -8.390625 C 2.5 -8.390625 2.5625 -8.328125 2.5625 -8.203125 L 2.5625 -1.375 Z M 6.34375 -1.375 "/></g></g></g><g fill="#034833" fill-opacity="1"><g transform="translate(253.520491, 188.624988)"><g><path d="M 0.328125 -7.265625 L 0.328125 -8.140625 C 0.328125 -8.296875 0.40625 -8.375 0.5625 -8.375 L 6.3125 -8.375 C 6.382812 -8.375 6.441406 -8.351562 6.484375 -8.3125 C 6.523438 -8.269531 6.546875 -8.210938 6.546875 -8.140625 L 6.546875 -7.265625 C 6.546875 -7.097656 6.46875 -7.015625 6.3125 -7.015625 L 4.203125 -7.015625 L 4.203125 -0.234375 C 4.203125 -0.078125 4.117188 0 3.953125 0 L 2.890625 0 C 2.734375 0 2.65625 -0.078125 2.65625 -0.234375 L 2.65625 -7.015625 L 0.5625 -7.015625 C 0.488281 -7.015625 0.429688 -7.035156 0.390625 -7.078125 C 0.347656 -7.117188 0.328125 -7.179688 0.328125 -7.265625 Z M 0.328125 -7.265625 "/></g></g></g><g fill="#034833" fill-opacity="1"><g transform="translate(269.440056, 188.624988)"><g><path d="M 8.109375 -0.265625 C 8.148438 -0.191406 8.148438 -0.125 8.109375 -0.0625 C 8.078125 -0.0078125 8.019531 0.015625 7.9375 0.015625 L 6.75 0.015625 C 6.6875 0.015625 6.628906 -0.00390625 6.578125 -0.046875 C 6.523438 -0.0859375 6.488281 -0.140625 6.46875 -0.203125 L 6.125 -1.015625 L 2.28125 -1.015625 L 1.9375 -0.203125 C 1.914062 -0.148438 1.878906 -0.101562 1.828125 -0.0625 C 1.785156 -0.0195312 1.726562 0 1.65625 0 L 0.46875 0 C 0.382812 0 0.320312 -0.0234375 0.28125 -0.078125 C 0.25 -0.128906 0.25 -0.195312 0.28125 -0.28125 L 3.859375 -8.28125 C 3.890625 -8.34375 3.929688 -8.390625 3.984375 -8.421875 C 4.046875 -8.460938 4.101562 -8.484375 4.15625 -8.484375 L 4.234375 -8.484375 C 4.296875 -8.484375 4.351562 -8.460938 4.40625 -8.421875 C 4.457031 -8.390625 4.5 -8.335938 4.53125 -8.265625 Z M 2.828125 -2.359375 L 5.578125 -2.359375 L 4.203125 -5.6875 Z M 2.828125 -2.359375 "/></g></g></g><g fill="#034833" fill-opacity="1"><g transform="translate(286.887557, 188.624988)"><g><path d="M 8.28125 -8.390625 C 8.40625 -8.390625 8.46875 -8.328125 8.46875 -8.203125 L 8.46875 -0.15625 C 8.46875 -0.0703125 8.441406 -0.0078125 8.390625 0.03125 C 8.347656 0.0820312 8.300781 0.109375 8.25 0.109375 L 8.234375 0.109375 C 8.160156 0.109375 8.097656 0.0859375 8.046875 0.046875 C 8.003906 0.00390625 7.953125 -0.0390625 7.890625 -0.09375 L 2.5625 -5.15625 L 2.5625 -0.171875 C 2.5625 -0.0546875 2.5 0 2.375 0 L 1.1875 0 C 1.0625 0 1 -0.0546875 1 -0.171875 L 1 -8.25 C 1 -8.3125 1.015625 -8.363281 1.046875 -8.40625 C 1.085938 -8.457031 1.140625 -8.484375 1.203125 -8.484375 L 1.21875 -8.484375 C 1.28125 -8.484375 1.332031 -8.460938 1.375 -8.421875 C 1.414062 -8.390625 1.46875 -8.347656 1.53125 -8.296875 L 6.90625 -3.203125 L 6.90625 -8.203125 C 6.90625 -8.328125 6.96875 -8.390625 7.09375 -8.390625 Z M 8.28125 -8.390625 "/></g></g></g><g fill="#034833" fill-opacity="1"><g transform="translate(305.394141, 188.624988)"><g><path d="M 0.328125 -7.265625 L 0.328125 -8.140625 C 0.328125 -8.296875 0.40625 -8.375 0.5625 -8.375 L 6.3125 -8.375 C 6.382812 -8.375 6.441406 -8.351562 6.484375 -8.3125 C 6.523438 -8.269531 6.546875 -8.210938 6.546875 -8.140625 L 6.546875 -7.265625 C 6.546875 -7.097656 6.46875 -7.015625 6.3125 -7.015625 L 4.203125 -7.015625 L 4.203125 -0.234375 C 4.203125 -0.078125 4.117188 0 3.953125 0 L 2.890625 0 C 2.734375 0 2.65625 -0.078125 2.65625 -0.234375 L 2.65625 -7.015625 L 0.5625 -7.015625 C 0.488281 -7.015625 0.429688 -7.035156 0.390625 -7.078125 C 0.347656 -7.117188 0.328125 -7.179688 0.328125 -7.265625 Z M 0.328125 -7.265625 "/></g></g></g><g fill="#034833" fill-opacity="1"><g transform="translate(321.313695, 188.624988)"><g><path d="M 3.78125 0.125 C 3.46875 0.125 3.15625 0.0859375 2.84375 0.015625 C 2.53125 -0.046875 2.234375 -0.140625 1.953125 -0.265625 C 1.671875 -0.390625 1.414062 -0.535156 1.1875 -0.703125 C 0.957031 -0.867188 0.765625 -1.054688 0.609375 -1.265625 C 0.566406 -1.316406 0.550781 -1.375 0.5625 -1.4375 C 0.570312 -1.5 0.601562 -1.5625 0.65625 -1.625 L 1.375 -2.34375 C 1.425781 -2.394531 1.484375 -2.414062 1.546875 -2.40625 C 1.617188 -2.394531 1.6875 -2.359375 1.75 -2.296875 C 1.914062 -2.117188 2.101562 -1.957031 2.3125 -1.8125 C 2.53125 -1.675781 2.757812 -1.566406 3 -1.484375 C 3.25 -1.398438 3.488281 -1.359375 3.71875 -1.359375 C 4.1875 -1.359375 4.546875 -1.445312 4.796875 -1.625 C 5.046875 -1.8125 5.171875 -2.066406 5.171875 -2.390625 C 5.171875 -2.585938 5.101562 -2.753906 4.96875 -2.890625 C 4.832031 -3.035156 4.632812 -3.164062 4.375 -3.28125 C 4.113281 -3.40625 3.796875 -3.53125 3.421875 -3.65625 C 3.015625 -3.789062 2.65625 -3.929688 2.34375 -4.078125 C 2.039062 -4.222656 1.78125 -4.390625 1.5625 -4.578125 C 1.34375 -4.773438 1.175781 -5 1.0625 -5.25 C 0.957031 -5.507812 0.90625 -5.804688 0.90625 -6.140625 C 0.90625 -6.617188 1.019531 -7.035156 1.25 -7.390625 C 1.488281 -7.742188 1.820312 -8.015625 2.25 -8.203125 C 2.675781 -8.398438 3.179688 -8.5 3.765625 -8.5 C 4.078125 -8.5 4.382812 -8.457031 4.6875 -8.375 C 5 -8.300781 5.28125 -8.191406 5.53125 -8.046875 C 5.78125 -7.910156 5.988281 -7.75 6.15625 -7.5625 C 6.207031 -7.5 6.234375 -7.429688 6.234375 -7.359375 C 6.242188 -7.285156 6.222656 -7.21875 6.171875 -7.15625 L 5.59375 -6.484375 C 5.507812 -6.390625 5.425781 -6.347656 5.34375 -6.359375 C 5.269531 -6.367188 5.191406 -6.40625 5.109375 -6.46875 C 4.921875 -6.644531 4.695312 -6.78125 4.4375 -6.875 C 4.1875 -6.96875 3.941406 -7.015625 3.703125 -7.015625 C 3.296875 -7.015625 2.984375 -6.929688 2.765625 -6.765625 C 2.546875 -6.597656 2.4375 -6.382812 2.4375 -6.125 C 2.4375 -5.914062 2.515625 -5.734375 2.671875 -5.578125 C 2.828125 -5.429688 3.039062 -5.300781 3.3125 -5.1875 C 3.582031 -5.070312 3.878906 -4.957031 4.203125 -4.84375 C 4.535156 -4.738281 4.859375 -4.617188 5.171875 -4.484375 C 5.484375 -4.359375 5.757812 -4.203125 6 -4.015625 C 6.238281 -3.835938 6.429688 -3.617188 6.578125 -3.359375 C 6.722656 -3.097656 6.796875 -2.785156 6.796875 -2.421875 C 6.796875 -2.023438 6.71875 -1.671875 6.5625 -1.359375 C 6.414062 -1.046875 6.207031 -0.773438 5.9375 -0.546875 C 5.675781 -0.328125 5.363281 -0.160156 5 -0.046875 C 4.632812 0.0664062 4.226562 0.125 3.78125 0.125 Z M 3.78125 0.125 "/></g></g></g><g fill="#034833" fill-opacity="1"><g transform="translate(91.853718, 133.451607)"><g><path d="M 0.359375 -7.921875 L 0.359375 -8.875 C 0.359375 -9.039062 0.445312 -9.125 0.625 -9.125 L 6.875 -9.125 C 6.957031 -9.125 7.019531 -9.097656 7.0625 -9.046875 C 7.113281 -9.003906 7.140625 -8.945312 7.140625 -8.875 L 7.140625 -7.921875 C 7.140625 -7.734375 7.050781 -7.640625 6.875 -7.640625 L 4.59375 -7.640625 L 4.59375 -0.265625 C 4.59375 -0.0859375 4.5 0 4.3125 0 L 3.15625 0 C 2.976562 0 2.890625 -0.0859375 2.890625 -0.265625 L 2.890625 -7.640625 L 0.625 -7.640625 C 0.539062 -7.640625 0.472656 -7.660156 0.421875 -7.703125 C 0.378906 -7.753906 0.359375 -7.828125 0.359375 -7.921875 Z M 0.359375 -7.921875 "/></g></g></g><g fill="#034833" fill-opacity="1"><g transform="translate(109.186409, 133.451607)"><g><path d="M 8.828125 -9.140625 C 8.960938 -9.140625 9.03125 -9.070312 9.03125 -8.9375 L 9.03125 -0.1875 C 9.03125 -0.0625 8.960938 0 8.828125 0 L 7.53125 0 C 7.394531 0 7.328125 -0.0625 7.328125 -0.1875 L 7.328125 -2.90625 L 2.796875 -2.90625 L 2.796875 -0.1875 C 2.796875 -0.0625 2.726562 0 2.59375 0 L 1.296875 0 C 1.160156 0 1.09375 -0.0625 1.09375 -0.1875 L 1.09375 -8.9375 C 1.09375 -9.070312 1.160156 -9.140625 1.296875 -9.140625 L 2.59375 -9.140625 C 2.726562 -9.140625 2.796875 -9.070312 2.796875 -8.9375 L 2.796875 -4.390625 L 7.328125 -4.390625 L 7.328125 -8.9375 C 7.328125 -9.070312 7.394531 -9.140625 7.53125 -9.140625 Z M 8.828125 -9.140625 "/></g></g></g><g fill="#034833" fill-opacity="1"><g transform="translate(129.14466, 133.451607)"><g><path d="M 7.703125 -1.609375 C 7.816406 -1.609375 7.90625 -1.578125 7.96875 -1.515625 C 8.03125 -1.460938 8.0625 -1.382812 8.0625 -1.28125 L 8.0625 -0.265625 C 8.0625 -0.179688 8.035156 -0.113281 7.984375 -0.0625 C 7.941406 -0.0195312 7.878906 0 7.796875 0 L 1.359375 0 C 1.179688 0 1.09375 -0.0859375 1.09375 -0.265625 L 1.09375 -8.859375 C 1.09375 -9.035156 1.179688 -9.125 1.359375 -9.125 L 7.671875 -9.125 C 7.753906 -9.125 7.816406 -9.097656 7.859375 -9.046875 C 7.910156 -9.003906 7.9375 -8.945312 7.9375 -8.875 L 7.9375 -7.796875 C 7.9375 -7.609375 7.847656 -7.515625 7.671875 -7.515625 L 2.796875 -7.515625 L 2.796875 -5 L 6.609375 -5 C 6.703125 -5 6.773438 -4.972656 6.828125 -4.921875 C 6.890625 -4.878906 6.921875 -4.8125 6.921875 -4.71875 L 6.921875 -3.71875 C 6.921875 -3.632812 6.890625 -3.566406 6.828125 -3.515625 C 6.773438 -3.460938 6.703125 -3.4375 6.609375 -3.4375 L 2.796875 -3.4375 L 2.796875 -1.609375 Z M 7.703125 -1.609375 "/></g></g></g></svg>